<svg width="86" height="28" viewBox="0 0 86 28" fill="none" xmlns="http://www.w3.org/2000/svg">
<path d="M37.1476 27.3387H30.1556L34.5258 0.480347H41.5184L37.1476 27.3387Z" fill="black"/>
<path d="M24.2731 0.480591L17.6063 18.9529L16.8182 14.9749L16.8189 14.9764L14.4653 2.89955C14.4653 2.89955 14.1816 0.480591 11.1484 0.480591H0.128655L6.10352e-05 0.934643C6.10352e-05 0.934643 3.37086 1.63583 7.31352 4.00594L13.3884 27.3384H20.6739L31.7985 0.480591H24.2731Z" fill="black"/>
<path d="M79.2714 27.3384H85.6918L80.0939 0.480591H74.4724C71.876 0.480591 71.2438 2.48214 71.2438 2.48214L60.8167 27.3384H68.1043L69.5627 23.3497H78.4516L79.2714 27.3384ZM71.5771 17.8379L75.2518 7.78704L77.3187 17.8379H71.5771Z" fill="black"/>
<path d="M61.3634 6.93932L62.3606 1.17104C62.3606 1.17104 59.2815 0 56.0716 0C52.6017 0 44.3621 1.51732 44.3621 8.8913C44.3621 15.8306 54.0327 15.9168 54.0327 19.56C54.0327 23.2032 45.3586 22.5523 42.4965 20.254L41.4562 26.2838C41.4562 26.2838 44.5777 27.8011 49.3494 27.8011C54.1204 27.8011 61.3196 25.329 61.3196 18.6059C61.3196 11.6228 51.5614 10.9726 51.5614 7.93723C51.5614 4.90041 58.3712 5.29052 61.3634 6.93932Z" fill="black"/>
<path d="M16.8188 14.9758L14.4653 2.89894C14.4653 2.89894 14.1815 0.47998 11.1484 0.47998H0.128604L9.53674e-06 0.934032C9.53674e-06 0.934032 5.29688 2.03251 10.3782 6.14481C15.2347 10.0761 16.8188 14.9758 16.8188 14.9758Z" fill="black"/>
</svg>
