<svg width="153" height="44" viewBox="0 0 153 44" fill="none" xmlns="http://www.w3.org/2000/svg">
<path d="M152.724 39.0835C152.724 41.4812 150.787 43.4247 148.397 43.4247H114.135C111.745 43.4247 109.809 41.4812 109.809 39.0835V4.34128C109.809 1.94373 111.745 0 114.135 0H148.397C150.787 0 152.724 1.94373 152.724 4.34128V39.0835Z" fill="black"/>
<path d="M0 8.75562H5.7738V29.4967H15.954V34.3588H0V8.75562Z" fill="black"/>
<path d="M23.9674 10.6174C23.9674 12.2125 22.79 13.5042 20.8528 13.5042C19.0294 13.5042 17.8517 12.2125 17.8517 10.6174C17.8517 8.98402 19.0676 7.73047 20.9289 7.73047C22.79 7.73047 23.9297 8.98402 23.9674 10.6174ZM18.0038 34.3588V15.7834H23.7779V34.3588H18.0038Z" fill="black"/>
<path d="M27.2329 21.7093C27.2329 19.3924 27.157 17.4553 27.0809 15.7834H32.0949L32.3613 18.3666H32.4754C33.2349 17.1508 35.0961 15.3656 38.2107 15.3656C42.0097 15.3656 44.8589 17.9109 44.8589 23.3808V34.3589H39.0846V24.0645C39.0846 21.6715 38.2492 20.0383 36.16 20.0383C34.5642 20.0383 33.6147 21.1399 33.1967 22.2032C33.0449 22.5831 33.0073 23.1148 33.0073 23.6469V34.3589H27.2329V21.7093Z" fill="black"/>
<path d="M54.088 23.6087H54.164C54.5821 22.8109 55.0379 22.0514 55.4936 21.3677L59.2539 15.7834H66.2054L59.5579 23.3047L67.1548 34.3589H60.0518L55.531 26.7233L54.088 28.5467V34.3589H48.3137V7.38855H54.088V23.6087Z" fill="black"/>
<path d="M71.6368 26.9136C71.7888 29.3066 74.1815 30.4464 76.8787 30.4464C78.8541 30.4464 80.4493 30.1802 82.0074 29.6485L82.7667 33.5612C80.8672 34.3589 78.5504 34.7388 76.0433 34.7388C69.7373 34.7388 66.1286 31.0923 66.1286 25.2801C66.1286 20.5699 69.0539 15.3656 75.5109 15.3656C81.5131 15.3656 83.7923 20.0383 83.7923 24.6344C83.7923 25.6219 83.6779 26.4955 83.6021 26.9136H71.6368ZM78.4361 22.9628C78.4361 21.5574 77.8285 19.2021 75.1695 19.2021C72.7383 19.2021 71.7504 21.444 71.5986 22.9628H78.4361Z" fill="black"/>
<path d="M104.075 7.38855V28.813C104.075 30.9021 104.151 33.1056 104.227 34.3589H99.0988L98.8711 31.6619H98.7577C97.618 33.713 95.3386 34.7773 92.9456 34.7773C88.5394 34.7773 85.0063 31.0164 85.0063 25.2421C84.9687 18.9742 88.8815 15.3279 93.3253 15.3279C95.6424 15.3279 97.3899 16.1633 98.2253 17.4168H98.3013V7.38855H104.075ZM98.3013 23.6469C98.3013 23.3426 98.3013 22.925 98.2253 22.583C97.8838 21.0639 96.6305 19.7722 94.8451 19.7722C92.1855 19.7722 90.856 22.1273 90.856 25.0524C90.856 28.2047 92.4141 30.1801 94.807 30.1801C96.4783 30.1801 97.8456 29.041 98.1876 27.4077C98.2638 26.9897 98.3013 26.5342 98.3013 26.078V23.6469Z" fill="black"/>
<path d="M123.769 10.6173C123.769 12.2123 122.591 13.5041 120.654 13.5041C118.831 13.5041 117.653 12.2123 117.653 10.6173C117.653 8.9839 118.869 7.73035 120.73 7.73035C122.591 7.73035 123.731 8.9839 123.769 10.6173ZM117.805 34.3587V15.7833H123.579V34.3587H117.805Z" fill="white"/>
<path d="M127.035 21.7091C127.035 19.3922 126.959 17.4552 126.883 15.7833H131.897L132.163 18.3665H132.277C133.036 17.1507 134.898 15.3655 138.013 15.3655C141.812 15.3655 144.66 17.9108 144.66 23.3807V34.3588H138.887V24.0644C138.887 21.6714 138.05 20.0382 135.961 20.0382C134.366 20.0382 133.417 21.1397 132.999 22.203C132.846 22.583 132.808 23.1147 132.808 23.6468V34.3588H127.035V21.7091Z" fill="white"/>
</svg>
