<svg width="162" height="49" viewBox="0 0 162 49" fill="none" xmlns="http://www.w3.org/2000/svg">
<path d="M24.2509 0C10.8578 0 0 10.8574 0 24.2506C0 37.6451 10.8578 48.5021 24.2509 48.5021C37.6446 48.5021 48.5017 37.6451 48.5017 24.2506C48.5017 10.8584 37.6451 0.0012207 24.2506 0.0012207L24.2509 0ZM35.3722 34.9763C34.9366 35.6907 34.0059 35.9147 33.2938 35.4794C27.5991 31.9987 20.4312 31.2125 11.9897 33.1409C11.1763 33.3275 10.3655 32.8175 10.1801 32.0044C9.99393 31.1909 10.5016 30.38 11.317 30.1946C20.5549 28.0828 28.4788 28.9918 34.8709 32.8978C35.5833 33.335 35.8091 34.2644 35.3719 34.9768L35.3722 34.9763ZM38.3404 28.3741C37.7919 29.264 36.6284 29.5431 35.7397 28.9968C29.2225 24.9906 19.2847 23.8301 11.5745 26.1705C10.5745 26.4725 9.51842 25.9091 9.21494 24.9109C8.91377 23.9109 9.47761 22.8569 10.4758 22.5527C19.283 19.8806 30.2317 21.1749 37.7175 25.7751C38.6066 26.3221 38.8875 27.4865 38.3401 28.3744L38.3404 28.3741H38.3404ZM38.5953 21.498C30.7781 16.8558 17.884 16.4287 10.4216 18.6937C9.22333 19.0571 7.95609 18.3807 7.59295 17.1824C7.2298 15.9835 7.9057 14.7172 9.10488 14.3528C17.6712 11.7522 31.9116 12.2549 40.9102 17.5968C41.9881 18.2363 42.3416 19.6285 41.7028 20.7048C41.0657 21.7826 39.6699 22.1381 38.5955 21.498H38.5953ZM65.9786 22.3877C61.7914 21.3892 61.0461 20.6885 61.0461 19.2159C61.0461 17.8247 62.3559 16.8883 64.3036 16.8883C66.1917 16.8883 68.0639 17.5995 70.0267 19.0631C70.0861 19.1073 70.1605 19.125 70.2338 19.1133C70.3071 19.1023 70.3719 19.062 70.4148 19.0017L72.4593 16.1195C72.5433 16.0007 72.5204 15.8372 72.4071 15.7467C70.071 13.8722 67.4404 12.9608 64.3656 12.9608C59.8446 12.9608 56.6866 15.6738 56.6866 19.556C56.6866 23.7188 59.4108 25.1927 64.1183 26.3304C68.125 27.2533 68.8013 28.0266 68.8013 29.4089C68.8013 30.9403 67.4338 31.8926 65.2332 31.8926C62.7891 31.8926 60.7956 31.0693 58.5655 29.1379C58.5102 29.0902 58.4343 29.0686 58.3642 29.0726C58.2904 29.0786 58.2229 29.1125 58.176 29.1693L55.8836 31.8976C55.7875 32.0106 55.7997 32.1797 55.9109 32.2776C58.5056 34.594 61.6968 35.8174 65.1406 35.8174C70.0123 35.8174 73.1604 33.1558 73.1604 29.0358C73.1691 25.5579 71.087 23.632 65.9873 22.3914L65.9786 22.3877ZM84.182 18.2582C82.0704 18.2582 80.3384 19.09 78.9101 20.7941V18.8759C78.9101 18.7242 78.7873 18.6012 78.6362 18.6012H74.8869C74.7354 18.6012 74.6129 18.7242 74.6129 18.8759V40.1899C74.6129 40.3416 74.7354 40.4648 74.8869 40.4648H78.6362C78.7873 40.4648 78.9101 40.3416 78.9101 40.1899V33.462C80.3387 35.0653 82.071 35.8485 84.182 35.8485C88.1057 35.8485 92.0777 32.8281 92.0777 27.0544C92.0834 21.2793 88.1103 18.2579 84.1864 18.2579L84.182 18.2582ZM87.7179 27.0544C87.7179 29.9945 85.9068 32.0461 83.3136 32.0461C80.7499 32.0461 78.816 29.9014 78.816 27.0544C78.816 24.2076 80.7499 22.0625 83.3136 22.0625C85.8648 22.0623 87.7182 24.1611 87.7182 27.054L87.7179 27.0544ZM102.258 18.2582C97.2051 18.2582 93.2464 22.149 93.2464 27.1171C93.2464 32.0312 97.1778 35.8813 102.196 35.8813C107.267 35.8813 111.238 32.0034 111.238 27.0544C111.238 22.1224 107.294 18.2587 102.258 18.2587L102.258 18.2582ZM102.258 32.0756C99.5704 32.0756 97.5442 29.916 97.5442 27.053C97.5442 24.1776 99.5003 22.0911 102.196 22.0911C104.901 22.0911 106.941 24.2506 106.941 27.1158C106.941 29.9906 104.972 32.0756 102.258 32.0756H102.258ZM122.028 18.6012H117.902V14.3828C117.902 14.2319 117.78 14.1084 117.629 14.1084H113.88C113.728 14.1084 113.605 14.2319 113.605 14.3828V18.6012H111.803C111.652 18.6012 111.529 18.7242 111.529 18.8759V22.098C111.529 22.2491 111.652 22.3729 111.803 22.3729H113.605V30.7104C113.605 34.0797 115.282 35.7881 118.59 35.7881C119.934 35.7881 121.05 35.5103 122.102 34.9142C122.187 34.8665 122.24 34.7742 122.24 34.6763V31.6079C122.24 31.5133 122.191 31.4238 122.11 31.374C122.028 31.3229 121.926 31.3203 121.843 31.3617C121.121 31.7251 120.422 31.8928 119.642 31.8928C118.439 31.8928 117.902 31.3467 117.902 30.1226V22.3745H122.028C122.18 22.3745 122.302 22.251 122.302 22.0996V18.8777C122.307 18.7262 122.186 18.6027 122.032 18.6027L122.028 18.6012ZM136.403 18.6177V18.0996C136.403 16.5754 136.988 15.8956 138.298 15.8956C139.08 15.8956 139.708 16.0509 140.411 16.2855C140.497 16.3126 140.588 16.2992 140.658 16.2473C140.731 16.1953 140.771 16.1123 140.771 16.0243V12.8651C140.771 12.7443 140.694 12.6373 140.577 12.6016C139.835 12.3806 138.884 12.1539 137.461 12.1539C133.998 12.1539 132.168 14.1041 132.168 17.7914V18.5848H130.367C130.215 18.5848 130.091 18.7081 130.091 18.8593V22.098C130.091 22.2491 130.215 22.3729 130.367 22.3729H132.168V35.2333C132.168 35.3846 132.29 35.5079 132.441 35.5079H136.19C136.342 35.5079 136.465 35.3846 136.465 35.2333V22.3738H139.966L145.328 35.2308C144.719 36.5818 144.121 36.8505 143.304 36.8505C142.643 36.8505 141.947 36.6533 141.236 36.2642C141.169 36.2273 141.09 36.2211 141.018 36.2435C140.946 36.2688 140.886 36.322 140.856 36.3916L139.585 39.1793C139.524 39.3113 139.576 39.4659 139.703 39.5343C141.03 40.2526 142.227 40.5591 143.707 40.5591C146.476 40.5591 148.006 39.2698 149.355 35.8005L155.859 18.9929C155.892 18.9082 155.882 18.8127 155.83 18.7377C155.779 18.6633 155.696 18.6184 155.605 18.6184H151.702C151.585 18.6184 151.48 18.6927 151.442 18.8026L147.443 30.2234L143.064 18.7952C143.024 18.6887 142.922 18.6184 142.808 18.6184H136.402L136.403 18.6177ZM128.069 18.6012H124.32C124.168 18.6012 124.045 18.7242 124.045 18.8759V35.2333C124.045 35.3846 124.168 35.5079 124.32 35.5079H128.069C128.22 35.5079 128.344 35.3846 128.344 35.2333V18.8772C128.344 18.8041 128.315 18.734 128.263 18.6823C128.212 18.6309 128.142 18.6019 128.069 18.6022L128.069 18.6012ZM126.216 11.1532C124.73 11.1532 123.525 12.3555 123.525 13.8409C123.525 15.3271 124.731 16.5309 126.216 16.5309C127.7 16.5309 128.904 15.3271 128.904 13.8409C128.904 12.3557 127.7 11.1532 126.217 11.1532H126.216ZM159.061 23.8601C157.577 23.8601 156.422 22.6686 156.422 21.2216C156.422 19.7744 157.592 18.5692 159.074 18.5692C160.558 18.5692 161.713 19.7605 161.713 21.2064C161.713 22.6536 160.543 23.8601 159.06 23.8601H159.061ZM159.075 18.8317C157.723 18.8317 156.701 19.906 156.701 21.2216C156.701 22.5365 157.716 23.5964 159.061 23.5964C160.413 23.5964 161.436 22.5228 161.436 21.2064C161.436 19.8915 160.42 18.8317 159.076 18.8317H159.075H159.075ZM159.66 21.4777L160.406 22.5226H159.777L159.105 21.5641H158.527V22.5226H158.001V19.7531H159.236C159.879 19.7531 160.302 20.0824 160.302 20.6365C160.305 21.0906 160.042 21.368 159.662 21.4779H159.66V21.4777ZM159.214 20.2284H158.527V21.1042H159.214C159.557 21.1042 159.762 20.9365 159.762 20.6658C159.762 20.381 159.556 20.2284 159.214 20.2284H159.214Z" fill="black"/>
</svg>
