<svg width="155" height="52" viewBox="0 0 155 52" fill="none" xmlns="http://www.w3.org/2000/svg">
<path d="M91.111 15.7039H91.0998C85.2762 15.7039 80.5639 20.4274 80.5639 26.2401C80.5639 32.0639 85.2762 36.7874 91.0998 36.7874C96.9235 36.7874 101.647 32.075 101.647 26.2512C101.647 20.4274 96.9346 15.7039 91.111 15.7039ZM95.5676 30.7191C93.0892 33.1864 89.0882 33.1753 86.621 30.7079C84.1648 28.2406 84.1648 24.2395 86.621 21.7722C89.0882 19.2937 93.0892 19.2937 95.5676 21.7611L95.5787 21.7722C98.0571 24.2395 98.046 28.2517 95.5676 30.7191Z" fill="black"/>
<path d="M78.4523 32.6297L77.3965 32.5742H67.9053L80.5639 19.9152L80.5084 18.8593C80.4639 17.1589 79.0969 15.7918 77.3965 15.7473L76.3407 15.6918H60.5256L60.5812 16.7476C60.659 18.4259 62.0038 19.7818 63.6931 19.8596L64.7489 19.9152H74.2402L61.5815 32.5742L61.637 33.63C61.6926 35.3193 63.0596 36.6864 64.7489 36.742L65.8047 36.7975H81.6198L81.5642 35.7417C81.4197 33.9968 80.1861 32.7298 78.4523 32.6297Z" fill="black"/>
<path d="M145.947 15.7033C143.524 15.7033 141.223 16.7481 139.623 18.5596C136.822 15.381 132.088 14.7697 128.576 17.1482C127.765 16.2257 125.92 15.7033 124.864 15.7033V36.798L125.92 36.7424C127.676 36.6312 128.965 35.3865 129.031 33.6304L129.087 32.5746V25.1948L129.143 24.1389C129.143 23.4054 129.332 22.683 129.665 22.0273C130.821 20.0156 133.399 19.3265 135.422 20.4935C136.055 20.8603 136.589 21.3938 136.956 22.0273H136.945C137.289 22.683 137.467 23.4054 137.467 24.1389L137.523 25.1948V32.5746L137.578 33.6304C137.645 35.3198 138.99 36.6757 140.679 36.7424L141.735 36.798V25.1948L141.79 24.1389C141.79 23.3943 141.968 22.6719 142.313 22.0162C143.48 20.0045 146.069 19.3154 148.081 20.4935C148.714 20.8603 149.248 21.3938 149.614 22.0273C149.948 22.683 150.126 23.4054 150.126 24.1389L150.181 25.1948V32.5746L150.237 33.6304C150.293 35.3198 151.648 36.6757 153.338 36.7424L154.393 36.798V24.1389C154.382 19.4821 150.604 15.7033 145.947 15.7033Z" fill="black"/>
<path d="M120.707 18.7936C118.729 16.8153 116.05 15.7039 113.25 15.7039C110.449 15.7039 107.771 16.8153 105.792 18.7936C101.68 22.9169 101.68 29.5965 105.804 33.7088C109.927 37.821 116.606 37.821 120.718 33.6976C124.842 29.5854 124.83 22.9058 120.707 18.7936ZM117.718 30.7191C115.239 33.1864 111.238 33.1753 108.771 30.7079C106.315 28.2406 106.315 24.2395 108.771 21.7722C111.238 19.2937 115.239 19.2937 117.718 21.7611L117.729 21.7722C120.207 24.2395 120.196 28.2517 117.718 30.7191Z" fill="black"/>
<path d="M0.677368 0.67749H51.8233V51.8247H0.677368V0.67749Z" fill="black"/>
<path d="M9.11285 16.4933H42.8657V35.9986H9.11285V16.4933Z" fill="white"/>
</svg>
